PathFileType	4	(X/Y/Z)	C:\Users\dbl\Desktop\20210112(1)\20210112\bx_y_5_501.trc
DataRate	CameraRate	NumFrames	NumMarkers	Units	OrigDataRate	OrigDataStartFrame	OrigNumFrames
50.00	50.00	       4	43	mm	50.00	325	       519
Frame#	Time	Top.Head			R.Acromium			L.Acromium			Sternum			R.ASIS			L.ASIS			V.Sacral			R.Thigh.Upper			R.Thigh.Front			R.Thigh.Rear			R.Knee.Lat			R.Knee.Med			R.Shank.Upper			R.Shank.Front			R.Shank.Rear			R.Ankle.Lat			R.Midfoot.Lat			R.Toe.Lat			R.Toe.Tip			R.Toe.Med			R.Ankle.Med			R.Midfoot.Sup			R.Heel			L.Thigh.Upper			L.Thigh.Front			L.Thigh.Rear			L.Knee.Lat			L.Knee.Med			L.Shank.Upper			L.Shank.Front			L.Shank.Rear			L.Ankle.Lat			L.Midfoot.Lat			L.Toe.Lat			L.Toe.Tip			L.Toe.Med			L.Ankle.Med			L.Midfoot.Sup			L.Heel			origin1 front left			origin2 front right			origin 3 back right			origin 4 back leftt			
		X1	Y1	Z1	X2	Y2	Z2	X3	Y3	Z3	X4	Y4	Z4	X5	Y5	Z5	X6	Y6	Z6	X7	Y7	Z7	X8	Y8	Z8	X9	Y9	Z9	X10	Y10	Z10	X11	Y11	Z11	X12	Y12	Z12	X13	Y13	Z13	X14	Y14	Z14	X15	Y15	Z15	X16	Y16	Z16	X17	Y17	Z17	X18	Y18	Z18	X19	Y19	Z19	X20	Y20	Z20	X21	Y21	Z21	X22	Y22	Z22	X23	Y23	Z23	X24	Y24	Z24	X25	Y25	Z25	X26	Y26	Z26	X27	Y27	Z27	X28	Y28	Z28	X29	Y29	Z29	X30	Y30	Z30	X31	Y31	Z31	X32	Y32	Z32	X33	Y33	Z33	X34	Y34	Z34	X35	Y35	Z35	X36	Y36	Z36	X37	Y37	Z37	X38	Y38	Z38	X39	Y39	Z39	X40	Y40	Z40	X41	Y41	Z41	X42	Y42	Z42	X43	Y43	Z43	

325	6.480	-176.07050	141.00339	1358.12036	-367.79562	-30.70575	1170.18689	-397.87186	287.40109	1174.38330	-441.54102	90.97293	1185.99756	-778.67847	-5.49048	995.20349	-782.12128	197.66425	982.82892	-962.35229	93.31475	1081.21143	-842.07678	-71.09522	838.76605	-772.67853	-9.65957	792.73914	-848.36200	-64.75452	686.17029	-835.27966	-34.94666	600.83490	-816.87250	69.01747	560.62988	-835.10126	-31.92966	553.88043	-774.12799	12.17478	523.13635	-858.04584	-43.02086	466.23209	-774.22430	-13.69574	199.86508	-666.33325	-70.31900	159.67981	-624.10718	-80.35782	157.82614	-563.21558	-38.98102	162.55627	-605.62598	17.50696	166.93947	-729.74133	69.98332	221.35178	-677.81903	51.58125	163.49251	-798.19934	50.17267	173.28119	-845.24481	285.05362	858.39514	-780.38104	220.22475	806.46490	-876.05273	287.00195	725.32690	-867.77704	251.62419	615.74213	-803.98914	145.99486	567.35101	-851.13519	246.57837	558.49805	-785.31305	208.41862	533.29059	-871.36829	256.23969	479.07590	-777.43146	226.28226	200.55653	-667.56232	302.29749	157.10417	-629.23248	309.71002	160.00357	-562.12787	260.81439	164.52205	-597.07477	226.59622	173.56351	-720.28894	158.68047	223.77937	-676.55261	177.28708	163.21365	-798.75964	174.78664	182.20740	-528.15405	304.00571	146.24033	-517.88177	-72.81170	142.48537	-875.96826	-78.93084	141.15724	-882.64545	295.93399	144.40732	
326	6.500	-173.45026	141.32565	1352.04785	-365.78781	-30.16525	1165.62122	-396.07101	287.66693	1169.87402	-439.88672	90.69423	1184.34106	-778.20856	-5.56271	994.73883	-782.44604	197.62630	982.24683	-961.51385	93.06388	1081.73181	-841.96118	-71.19411	838.76172	-772.45789	-9.58603	792.72845	-848.25171	-64.92577	686.04291	-835.10541	-35.11554	600.96246	-816.96802	68.77225	560.69653	-834.91699	-31.94847	553.95331	-774.04260	12.17632	523.08557	-857.80743	-43.03605	466.34552	-774.10712	-13.58412	199.88817	-666.30872	-70.27889	159.74908	-624.10724	-80.31104	157.84827	-563.21515	-39.00681	162.52716	-605.62842	17.55198	166.87477	-729.70654	70.07225	221.19846	-677.77820	51.70385	163.33463	-798.09174	50.25446	173.26430	-845.25378	285.02451	858.36688	-780.36829	220.19287	806.40869	-876.13177	286.99384	725.31891	-867.75250	251.58162	615.80939	-803.98969	145.79698	567.50311	-851.14307	246.50266	558.55609	-785.29913	208.40034	533.35089	-871.34351	256.06857	479.11526	-777.43066	226.29906	200.61798	-667.55530	302.27927	157.12651	-629.23645	309.69482	159.99460	-562.17035	260.86288	164.45979	-597.06769	226.55690	173.57065	-720.28943	158.63681	223.81133	-676.50836	177.25479	163.31619	-798.73883	174.77766	182.22162	-528.16980	304.01025	146.23555	-517.92542	-72.84456	142.49390	-875.99323	-78.93000	141.14336	-882.66632	295.94333	144.41104	
327	6.520	-170.90442	141.59685	1346.45374	-363.84351	-29.63540	1161.43445	-394.51019	287.92679	1165.64844	-438.29590	90.41714	1182.81006	-777.66406	-5.65252	994.35870	-782.68921	197.60345	981.75433	-960.58661	92.79081	1082.17969	-841.73645	-71.34341	838.81970	-772.11926	-9.61843	792.72998	-847.99103	-65.19379	686.01093	-834.83679	-35.43371	601.18317	-817.00983	68.53706	560.78467	-834.71783	-32.07833	554.05389	-773.96771	12.11475	522.94373	-857.53882	-43.15676	466.42941	-774.01978	-13.54232	199.88548	-666.27917	-70.25030	159.78587	-624.09656	-80.28889	157.86368	-563.19818	-39.01565	162.51082	-605.61633	17.59576	166.85751	-729.63385	70.09534	221.03824	-677.75061	51.79478	163.22504	-798.00946	50.30792	173.25839	-845.15723	284.99222	858.37091	-780.23419	220.05945	806.24854	-876.08856	287.01907	725.32916	-867.61682	251.55479	615.86798	-803.96869	145.58714	567.63770	-851.05548	246.50963	558.61432	-785.18738	208.29913	533.25787	-871.25177	256.02200	479.17859	-777.46692	226.33202	200.55659	-667.53790	302.30566	157.11726	-629.24579	309.69006	159.98520	-562.24054	260.91895	164.40752	-597.11700	226.57477	173.61050	-720.38147	158.68916	223.72873	-676.52106	177.25305	163.33826	-798.76801	174.79970	182.15573	-528.17505	304.00403	146.23604	-517.96320	-72.86339	142.49158	-875.99213	-78.94219	141.12700	-882.66199	295.97913	144.44229	
328	6.540	-168.43799	141.82677	1341.39941	-361.95380	-29.08824	1157.60669	-393.11237	288.17166	1161.68799	-436.76947	90.14234	1181.40442	-777.03662	-5.74906	994.00153	-782.85211	197.59540	981.34961	-959.59198	92.56867	1082.57214	-841.37744	-71.54386	838.95428	-771.68921	-9.77007	792.75189	-847.58185	-65.54788	686.07690	-834.49731	-35.78263	601.43488	-817.00024	68.31268	560.89252	-834.49200	-32.29436	554.17572	-773.89087	12.00283	522.79645	-857.22540	-43.36148	466.46497	-773.92810	-13.59389	199.89421	-666.24231	-70.21835	159.78822	-624.05664	-80.31175	157.88693	-563.16498	-39.00463	162.51015	-605.59418	17.63170	166.85878	-729.55615	70.08270	220.92436	-677.73615	51.81590	163.19977	-797.96234	50.30228	173.26167	-844.96313	284.91507	858.39325	-780.01086	219.85828	806.02698	-875.90698	287.05145	725.37933	-867.39172	251.52603	615.93353	-803.92920	145.36975	567.75183	-850.87561	246.56566	558.66705	-784.97089	208.13765	533.07971	-871.07117	256.07098	479.25989	-777.53931	226.34720	200.40561	-667.51721	302.35056	157.08321	-629.26178	309.70526	159.99008	-562.31580	260.94937	164.39075	-597.19910	226.62183	173.65005	-720.56305	158.80876	223.59299	-676.58539	177.28020	163.27774	-798.83289	174.83842	182.04257	-528.17188	303.99686	146.22762	-517.97211	-72.88080	142.47554	-875.97986	-78.95023	141.12227	-882.62756	296.01950	144.48703	
